<svg width="192" height="192" viewBox="0 0 192 192" fill="none" xmlns="http://www.w3.org/2000/svg">
<path d="M192 96C192 149.019 149.019 192 96 192C42.9807 192 0 149.019 0 96C0 42.9807 42.9807 0 96 0C149.019 0 192 42.9807 192 96Z" fill="#E97E6F"/>
<path d="M61.1129 36.1033L61.5578 41.8271L57.1871 45.5566L62.7879 46.9096L64.9863 52.2095L67.9961 47.3205L73.7016 46.8625L69.9852 42.4892L71.3199 36.9094L66.007 39.0947L61.1129 36.1033ZM150.438 38.375C149.327 38.375 148.262 38.8162 147.476 39.6015C146.691 40.3868 146.25 41.4519 146.25 42.5625C146.25 43.6731 146.691 44.7382 147.476 45.5235C148.262 46.3088 149.327 46.75 150.438 46.75C151.548 46.75 152.613 46.3088 153.399 45.5235C154.184 44.7382 154.625 43.6731 154.625 42.5625C154.625 41.4519 154.184 40.3868 153.399 39.6015C152.613 38.8162 151.548 38.375 150.438 38.375ZM91.7602 41.123C90.6496 41.123 89.5845 41.5642 88.7991 42.3495C88.0138 43.1348 87.5727 44.2 87.5727 45.3105C87.5727 46.4211 88.0138 47.4862 88.7991 48.2716C89.5845 49.0569 90.6496 49.498 91.7602 49.498C92.8707 49.498 93.9359 49.0569 94.7212 48.2716C95.5065 47.4862 95.9477 46.4211 95.9477 45.3105C95.9477 44.2 95.5065 43.1348 94.7212 42.3495C93.9359 41.5642 92.8707 41.123 91.7602 41.123ZM139.89 42.9132C137.482 43.3686 135.258 44.7923 133.112 46.6505C131.123 48.3596 129.264 50.4873 127.694 52.7878C122.774 53.5756 117.854 55.5804 114.556 58.318C110.342 61.7727 106.6 67.6875 104.558 73.7856C102.621 74.5969 100.789 75.5652 99.2977 76.6121C95.241 79.4648 93.1473 84.9348 91.6031 89.698C90.059 94.4875 89.3 98.675 89.3 98.675L93.9586 99.5125C93.9586 99.5125 94.6652 95.5867 96.0785 91.1637C97.518 86.7406 99.952 81.925 102.02 80.4855C102.36 80.25 102.805 79.9883 103.197 79.7527C103.04 81.2445 103.04 82.7363 103.276 84.1496C103.747 87.1332 105.37 89.9859 108.248 91.5301C110.29 92.6293 112.593 92.3676 114.53 91.5824C116.466 90.7711 118.194 89.4363 119.686 87.866C121.177 86.2957 122.407 84.4375 123.14 82.4746C123.873 80.5117 124.135 78.2871 123.193 76.2195H123.166C122.146 74.0211 120.183 72.6078 118.089 72.0059C115.995 71.4039 113.745 71.4301 111.494 71.7703C111.101 71.8227 110.735 71.9535 110.342 72.032C112.279 67.8969 115.053 63.9973 117.539 61.9297C119.162 60.5949 121.884 59.3125 124.789 58.3703C124.423 59.3648 124.135 60.3594 124.004 61.3801C123.585 64.1281 124.187 67.1117 126.386 69.1531C127.982 70.6188 130.128 70.8543 132.013 70.5402C133.871 70.2262 135.677 69.3887 137.299 68.3156C138.922 67.2164 140.361 65.8555 141.382 64.259C142.403 62.6625 143.083 60.6211 142.429 58.5797V58.5535C141.565 55.918 139.419 54.1069 137.038 53.2485C136.017 52.8821 134.944 52.6753 133.845 52.5523C134.604 51.6991 135.389 50.9009 136.174 50.2178C137.954 48.6893 139.759 47.7314 140.78 47.5404L139.89 42.9132ZM74.7484 52.0864L70.7703 54.5885L79.7996 69.0484L65.0387 69.8074L71.9742 84.9348L76.2664 82.9457L72.2098 74.152L88.0699 73.3406L74.7484 52.0864ZM131.384 57.1402C132.981 57.1141 134.394 57.2973 135.441 57.6898C136.854 58.1871 137.561 58.8152 137.927 59.993C138.032 60.2809 137.98 60.8566 137.43 61.7203C136.854 62.6102 135.834 63.6047 134.682 64.3898C133.504 65.175 132.196 65.7246 131.227 65.8816C130.233 66.0648 129.788 65.8816 129.579 65.6984C128.663 64.8609 128.401 63.8141 128.663 62.0605C128.872 60.6473 129.526 58.9461 130.495 57.1926C130.809 57.1926 131.096 57.1402 131.384 57.1402ZM53.8607 62.1914C52.7501 62.1914 51.685 62.6326 50.8997 63.4179C50.1143 64.2032 49.6732 65.2683 49.6732 66.3789C49.6732 67.4895 50.1143 68.5546 50.8997 69.3399C51.685 70.1252 52.7501 70.5664 53.8607 70.5664C54.4108 70.5668 54.9556 70.4587 55.464 70.2484C55.9723 70.0381 56.4342 69.7297 56.8234 69.3408C57.2125 68.952 57.5212 68.4902 57.7318 67.982C57.9424 67.4738 58.0508 66.929 58.0508 66.3789C58.0508 65.8288 57.9424 65.284 57.7318 64.7758C57.5212 64.2676 57.2125 63.8058 56.8234 63.417C56.4342 63.0281 55.9723 62.7197 55.464 62.5094C54.9556 62.2991 54.4108 62.1911 53.8607 62.1914ZM147.061 71.9273L143.293 76.2719L137.587 75.8008L140.571 80.7211L138.346 86.0078L143.947 84.6992L148.291 88.4418L148.789 82.7102L153.683 79.7266L148.396 77.502L147.061 71.9273ZM114.739 76.2457C115.498 76.2719 116.205 76.3766 116.754 76.5336C117.88 76.8477 118.482 77.3188 118.9 78.2086C119.136 78.7059 119.162 79.6219 118.717 80.8258C118.272 82.0559 117.356 83.4691 116.257 84.6469C115.158 85.8246 113.823 86.7668 112.724 87.2117C111.625 87.6566 110.944 87.6305 110.499 87.3949H110.473C108.955 86.5574 108.222 85.3535 107.934 83.4168C107.673 81.768 107.856 79.6742 108.405 77.4234C109.688 76.9785 110.97 76.6121 112.2 76.4289C113.116 76.298 113.954 76.2457 114.739 76.2457ZM61.7672 89.8289C59.8828 89.7766 58.7051 90.2215 57.9723 90.9543C57.2395 91.6871 56.7945 92.8648 56.8469 94.7492C56.8992 96.6598 57.5273 99.1723 58.7313 101.973C61.1391 107.6 65.8762 114.378 72.2359 120.764C78.5957 127.124 85.4004 131.835 91.0273 134.243C93.8016 135.446 96.3141 136.075 98.2246 136.127C100.135 136.205 101.287 135.734 102.02 135.002C102.752 134.269 103.223 133.117 103.145 131.207C103.093 129.296 102.464 126.784 101.261 123.983C98.8527 118.382 94.1418 111.578 87.782 105.218C81.4223 98.832 74.6176 94.1211 68.9906 91.7133C66.1902 90.5094 63.6777 89.8812 61.7672 89.8289ZM122.486 98.0207L113.849 112.154L106.233 104.852L102.988 108.254L114.791 119.586L123.638 105.139L133.766 113.593L157.138 103.595L155.305 99.2508L134.551 108.149L122.486 98.0207ZM53.4524 101.345L48.8357 116.498C59.6734 129.348 72.3144 136.572 86.0285 141.283L91.6816 139.555C90.8703 139.268 90.0066 138.927 89.143 138.561C82.757 135.839 75.6121 130.814 68.9121 124.088C62.1859 117.362 57.1609 110.217 54.4286 103.831C54.0596 102.993 53.735 102.156 53.4524 101.345ZM47.2182 121.811L43.5516 133.85C51.1126 140.916 58.993 144.109 67.2633 146.988L78.6219 143.534C67.3156 138.927 56.6375 132.201 47.2182 121.811ZM125.312 122.125C124.202 122.125 123.137 122.566 122.351 123.351C121.566 124.137 121.125 125.202 121.125 126.312C121.125 127.423 121.566 128.488 122.351 129.274C123.137 130.059 124.202 130.5 125.312 130.5C126.423 130.5 127.488 130.059 128.274 129.274C129.059 128.488 129.5 127.423 129.5 126.312C129.5 125.202 129.059 124.137 128.274 123.351C127.488 122.566 126.423 122.125 125.312 122.125ZM42.0362 138.849L36.7259 156.279L59.8305 149.239C53.8711 146.857 47.849 143.821 42.0362 138.849Z" fill="#FFF3F3"/>
</svg>
