<svg width="150" height="144" viewBox="0 0 150 144" fill="none" xmlns="http://www.w3.org/2000/svg">
<g clip-path="url(#clip0_474_493)">
<path d="M73.3032 83.5697L21.9971 56.5968L7.56837 73.8702C25.7691 83.4964 43.9697 93.1226 62.1826 102.761L73.3032 83.5697ZM77.2705 28.671L25.7813 54.2269L75.9766 80.6256L126.27 54.178L97.4243 39.079L77.2705 28.671ZM19.397 53.6894L0.476085 35.7563C-0.219716 34.9622 -0.146473 33.7406 0.659191 33.0321C0.769054 32.9344 0.903331 32.8489 1.0254 32.7756L58.5327 0.219931C59.4483 -0.268709 60.5835 0.073339 61.0962 0.965107L77.2461 23.2227L88.0127 3.04183C88.5132 2.10119 89.6729 1.73471 90.6128 2.23557L148.962 33.1054C149.133 33.2031 149.292 33.3131 149.438 33.4597C150.183 34.217 150.171 35.4387 149.414 36.1838L132.129 53.1763L148.865 73.2227C149.548 74.0412 149.438 75.2628 148.621 75.9347C148.499 76.0324 148.364 76.1179 148.23 76.1912L133.203 84.1438V113.951C133.203 114.757 132.715 115.441 132.007 115.734L77.6733 143.33C77.3193 143.721 76.8066 143.966 76.2451 143.966C75.4883 143.966 74.8413 143.538 74.5239 142.903L20.0928 115.661C19.4214 115.319 19.0308 114.647 19.0308 113.939V84.2904L3.72316 76.1912C3.58888 76.1179 3.4546 76.0324 3.33253 75.9347C2.51466 75.2506 2.4048 74.029 3.08839 73.2227L19.397 53.6894ZM74.2676 25.7269L58.728 4.48331L4.96827 35.06L22.5342 51.4294L74.2676 25.7269ZM80.2612 25.7514L98.2666 35.1821L128.882 50.9774L144.836 35.2921L90.5152 6.5356L80.2612 25.7514ZM129.968 56.5968L78.6621 83.5697L89.7827 102.749L144.397 73.858L129.968 56.5968Z" fill="#E97E6F"/>
</g>
<defs>
<clipPath id="clip0_474_493">
<rect width="150" height="143.966" fill="white"/>
</clipPath>
</defs>
</svg>
